<svg width="306" height="299" viewBox="0 0 306 299" fill="none" xmlns="http://www.w3.org/2000/svg">
<path d="M165.048 183.276C164.63 178.285 164.475 173.276 164.584 168.268C164.584 167.852 163.976 167.74 163.928 168.268C163.405 173.287 163.459 178.35 164.088 183.356C164.099 183.484 164.16 183.602 164.257 183.684C164.355 183.767 164.481 183.807 164.608 183.796C164.736 183.786 164.853 183.725 164.936 183.627C165.019 183.53 165.059 183.404 165.048 183.276ZM157.8 181.404C157.829 181.469 157.876 181.524 157.936 181.563C157.996 181.602 158.065 181.622 158.136 181.622C158.207 181.622 158.277 181.602 158.337 181.563C158.396 181.524 158.443 181.469 158.472 181.404C158.248 176.364 158.04 171.308 157.816 166.252C157.816 166.167 157.783 166.086 157.723 166.026C157.663 165.966 157.581 165.932 157.496 165.932C157.411 165.932 157.33 165.966 157.27 166.026C157.21 166.086 157.176 166.167 157.176 166.252C156.963 170.07 157.006 173.897 157.304 177.708C157.315 178.956 157.481 180.198 157.8 181.404ZM199.736 182.044C199.893 184.516 199.617 186.996 198.92 189.372C198.92 189.74 199.992 191.772 200.664 185.932C201.086 181.988 200.263 178.01 198.312 174.556C198.104 174.172 197.56 174.556 197.736 174.892C198.844 177.131 199.522 179.556 199.736 182.044ZM180.344 66.3804C180.333 67.5844 180.74 68.755 181.496 69.6923C182.456 70.5564 183.944 67.1964 188.408 66.6684V62.3484C185.294 62.5763 182.395 64.0255 180.344 66.3804ZM222.408 181.948C222.408 178.652 222.12 175.372 222.056 172.076C222.056 171.628 221.368 171.724 221.368 172.172C221.368 175.58 221.368 179.02 221.512 182.444C221.576 184.7 222.456 183.868 222.408 181.948ZM191.4 62.2684L191.496 66.5884C197.016 66.7804 198.616 70.9404 199.208 69.6444C199.464 69.0524 200.504 66.0924 199.944 65.5803C197.595 63.4715 194.557 62.2936 191.4 62.2684ZM76.5683 36.3004C75.7363 36.7484 76.5683 38.7164 77.2243 38.2844C77.8803 37.8524 77.4803 35.7724 76.5683 36.3004ZM75.5123 31.4844C74.3923 31.5964 74.3603 32.7484 75.5123 32.8924C76.3468 32.9571 77.1561 33.2086 77.8803 33.6284C78.3123 33.9164 78.7763 33.3404 78.5203 32.9404C78.1907 32.4552 77.7392 32.0652 77.2112 31.8097C76.6833 31.5541 76.0974 31.4419 75.5123 31.4844ZM72.6483 37.1164C73.0765 38.2394 73.4136 39.3952 73.6563 40.5724C73.9283 41.9484 73.9123 42.3164 73.8483 42.3964C73.5899 42.4047 73.3328 42.4368 73.0803 42.4924C72.6163 42.6524 72.6163 43.2444 73.3363 43.5804C73.5316 43.679 73.7521 43.7166 73.969 43.688C74.1859 43.6595 74.3892 43.5662 74.5523 43.4204C75.3843 42.6204 75.0323 40.3644 73.5283 36.7164C73.4753 36.5997 73.378 36.5088 73.258 36.4638C73.138 36.4188 73.005 36.4233 72.8883 36.4764C72.7716 36.5294 72.6808 36.6266 72.6358 36.7466C72.5908 36.8667 72.5953 36.9997 72.6483 37.1164Z" fill="#27272A"/>
<path d="M304.552 229.852H281.848C283.944 218.652 271.496 210.764 263.752 214.892C262.957 211.011 260.772 207.555 257.608 205.171C254.443 202.788 250.518 201.642 246.568 201.948C246.147 199.199 245.107 196.581 243.527 194.292C241.948 192.003 239.869 190.102 237.448 188.732C236.696 179.772 237.032 170.652 237.048 161.804C238.408 161.9 241.672 162.204 241.144 160.908C239.544 156.94 236.808 150.316 234.744 146.508C235.576 146.508 236.52 146.508 236.52 145.66C236.776 130.3 237.272 98.0763 237.272 98.0763C237.528 79.0043 238.168 57.0843 224.776 41.3883C224.36 40.8923 223.784 40.7163 223.416 41.2283C217.968 48.9415 214.386 57.8146 212.952 67.1483C212.408 58.0283 211.688 47.7243 210.28 37.5323C207.88 20.2363 202.088 8.62032 192.68 1.72431C191.784 1.06831 190.472 0.0123148 189.88 0.428315C175.192 10.8283 170.872 28.9723 169.848 42.3643C169.48 48.0603 169.368 53.8363 169.512 59.5643C167.544 52.2203 160.792 37.8843 158.312 41.3403C146.76 57.8843 147.736 79.2603 148.712 98.1243C150.312 134.06 150.792 143.324 151 145.74C151 146.524 151 147.052 153.208 146.812C148.552 159.148 147.592 161.212 148.008 161.564C148.424 161.916 150.072 161.804 150.872 161.756C150.76 167.148 152.04 193.356 151.864 194.748C150.703 196.163 149.769 197.75 149.096 199.452C146.369 200.194 143.837 201.526 141.681 203.354C139.525 205.181 137.796 207.46 136.616 210.028C134.488 209.82 132.342 210.173 130.392 211.052C128.472 189.756 124.536 157.564 119.72 136.124C127.96 137.196 131.896 133.5 133.8 130.3C138.6 121.932 135.4 108.028 129.448 100.332C124.41 89.6146 117.022 80.17 107.832 72.7003C108.808 70.8443 106.232 62.4123 99.6882 58.9403C96.8882 57.4523 93.1602 57.3403 91.4482 55.7403C87.7842 52.1563 90.2482 42.6203 82.6162 40.1243C82.1226 36.1808 81.3038 32.2849 80.1682 28.4763C89.7682 24.3483 89.2722 13.1803 83.6082 10.0123C78.3282 7.06832 75.4162 11.2443 71.9442 12.4123C67.1442 14.0123 63.0642 10.5563 56.7602 10.5563C44.8722 10.5563 42.0562 22.5243 41.4322 23.1163C40.8082 23.7083 40.5682 27.0843 35.2722 29.1643C29.6402 31.3563 22.4722 31.4843 19.4162 38.1083C16.8242 43.9003 21.8002 50.9723 18.3762 56.3323C16.3762 59.5323 9.19222 59.7243 3.97622 68.0923C-1.60778 77.0043 0.264222 89.1003 7.96022 94.1243C1.33622 109.004 1.64022 124.828 8.74422 135.484C15.2402 145.196 25.8322 148.844 37.3362 148.54C36.7602 175.644 37.0002 202.668 35.5602 229.948C30.3602 229.948 25.1442 230.06 20.0402 230.156C19.8959 230.156 19.7576 230.214 19.6556 230.316C19.5535 230.418 19.4962 230.556 19.4962 230.7C19.4962 230.845 19.5535 230.983 19.6556 231.085C19.7576 231.187 19.8959 231.244 20.0402 231.244C24.6002 231.34 29.9922 231.436 35.4642 231.436C34.5842 247.324 33.4002 263.436 31.9442 279.228C31.8002 280.828 35.5442 280.732 37.1282 280.828C36.6907 283.051 36.5242 285.318 36.6322 287.58C35.4162 288.652 33.6402 295.98 33.7362 297.34C33.7362 297.628 33.8642 297.804 34.0562 297.836C35.8162 298.124 62.4082 299.436 63.6402 297.98C63.671 297.924 63.6872 297.861 63.6872 297.796C63.6872 297.732 63.671 297.669 63.6402 297.612C61.8642 292.812 55.6402 288.764 50.5522 287.452L51.9282 281.324C52.9842 281.324 55.1282 281.484 55.4322 280.924C62.5842 264.796 69.0962 248.14 74.7762 231.452H98.0402C102.472 245.678 106.384 260.061 109.768 274.572C111.128 280.428 110.184 280.108 113.96 280.284C113.942 282.566 114.217 284.84 114.776 287.052C113.549 289.94 112.808 293.011 112.584 296.14C112.553 296.194 112.537 296.255 112.537 296.316C112.537 296.378 112.553 296.439 112.584 296.492C113.592 297.772 142.312 298.844 144.28 297.676C145.88 296.652 137.112 288.156 129.336 286.588C129.448 284.545 129.4 282.496 129.192 280.46C130.552 280.46 133.688 280.828 133.688 279.484C133.688 264.38 133.176 248.204 132.088 231.484H304.6C304.817 231.478 305.022 231.386 305.17 231.228C305.319 231.071 305.399 230.861 305.392 230.644C305.386 230.428 305.294 230.223 305.136 230.074C304.979 229.926 304.769 229.846 304.552 229.852ZM87.8322 201.308C91.8162 212.268 93.9442 219.084 97.5442 229.996H75.2562C79.1442 218.492 84.5202 201.196 88.0562 186.652C89.2562 181.852 91.6722 183.884 90.7922 187.788C89.7682 192.604 87.7842 201.196 87.8322 201.308ZM128.2 286.748C125.464 287.996 118.6 287.916 115.928 287.148C115.752 284.86 115.288 282.572 115.256 280.284L127.832 280.428C127.944 282.54 128.072 284.636 128.2 286.748ZM38.6002 148.524C52.0402 147.852 68.0242 141.708 81.4002 132.06C81.6882 131.852 81.9442 131.804 82.0242 131.532C82.1042 131.26 82.0242 131.036 81.5442 130.348C85.3016 128.589 89.247 127.263 93.3042 126.396C94.9042 126.108 99.5922 125.212 100.44 122.668L103.928 122.572C107.288 129.532 112.632 134.364 118.616 135.868L121.816 154.892C95.3842 163.996 71.2562 165.932 38.6962 161.5C38.8082 157.196 38.8242 152.828 38.6482 148.524H38.6002ZM80.5362 51.0043C78.2962 56.8123 73.6242 57.0523 74.3762 58.4283V58.9243C74.6802 61.4683 75.2722 66.7003 71.1762 70.3963C64.2642 67.6443 59.9762 64.4763 56.7762 59.8683C57.4482 58.7003 56.7762 53.5963 56.7762 53.5483C55.7842 48.3323 51.2402 47.2763 52.2642 42.5563C52.4082 41.8683 52.6162 41.4683 52.8882 41.3403C53.7842 40.9403 56.0882 44.0283 56.5682 40.4443C57.3202 35.3243 58.7602 31.3723 63.8322 29.9323C68.5362 28.6043 73.0802 30.8763 79.1602 28.7803C80.5362 34.4763 82.9042 44.7803 80.5362 51.0043ZM71.4162 71.8043C74.1842 71.1163 76.5522 64.3163 75.9762 60.5083C80.2943 61.1183 84.547 62.1252 88.6802 63.5163C103.72 68.8763 116.776 80.3323 125.592 95.8843C119.576 90.1243 111.704 86.8763 104.584 87.3243C102.314 83.6041 99.7058 80.1013 96.7922 76.8603C96.7487 76.8123 96.6956 76.7739 96.6364 76.7476C96.5771 76.7213 96.513 76.7077 96.4482 76.7077C96.3834 76.7077 96.3193 76.7213 96.26 76.7476C96.2008 76.7739 96.1477 76.8123 96.1042 76.8603C96.0583 76.9051 96.0217 76.9585 95.9968 77.0176C95.9718 77.0767 95.959 77.1402 95.959 77.2043C95.959 77.2685 95.9718 77.3319 95.9968 77.391C96.0217 77.4501 96.0583 77.5036 96.1042 77.5483C98.6605 80.7271 101.017 84.0615 103.16 87.5323C101.04 87.8524 98.9954 88.5573 97.1282 89.6123C96.8258 89.642 96.5262 89.6955 96.2322 89.7723C95.3536 89.9709 94.4597 90.094 93.5602 90.1403C89.8162 90.1403 89.6722 88.5403 88.3282 88.7163C85.6562 88.9883 86.4402 94.2683 92.5842 95.3883C91.4802 98.4763 90.9842 105.276 93.0482 108.188C90.5842 108.188 89.0002 107.676 88.9042 110.188C88.8721 110.641 88.8721 111.096 88.9042 111.548C88.1109 111.038 87.2129 110.712 86.2768 110.596C85.3406 110.48 84.3903 110.576 83.4962 110.876C81.8162 111.516 78.6162 114.86 77.0002 116.252C77.0002 115.58 77.0002 114.556 76.4082 114.492C66.2482 113.644 50.8082 113.404 41.5602 113.66C41.0532 107.133 41.1389 100.573 41.8162 94.0603C41.8438 93.9267 41.8172 93.7875 41.7421 93.6735C41.6671 93.5595 41.5499 93.4799 41.4162 93.4523C41.2826 93.4247 41.1434 93.4514 41.0294 93.5264C40.9154 93.6014 40.8358 93.7187 40.8082 93.8523C40.2962 96.7323 39.3042 108.476 40.3442 113.708L27.2402 114.572C27.1435 114.581 27.0518 114.62 26.9772 114.682C26.9027 114.745 26.8489 114.828 26.8229 114.922C26.7969 115.015 26.7999 115.115 26.8316 115.207C26.8632 115.298 26.922 115.379 27.0002 115.436C27.0453 115.477 27.099 115.506 27.1572 115.523C27.2154 115.54 27.2766 115.543 27.3362 115.532C43.4902 114.543 59.6927 114.65 75.8322 115.852C75.9066 121.258 77.5339 126.529 80.5202 131.036C59.1762 146.412 24.0562 156.46 9.72022 134.668C-0.599778 119.1 4.52022 91.9003 23.6562 75.2923C32.7965 67.4556 43.9172 62.2855 55.8002 60.3483C58.6962 65.8683 69.3202 72.2843 71.4002 71.7723L71.4162 71.8043ZM95.1282 91.1963C94.313 92.0572 93.6284 93.0329 93.0962 94.0923C90.1042 93.6443 88.4082 92.0763 88.1202 90.7803C87.8962 89.8843 88.4242 89.5163 89.5282 90.2683C91.2649 91.1156 93.211 91.4381 95.1282 91.1963ZM102.904 100.012C102.823 100.106 102.775 100.223 102.768 100.346C102.76 100.47 102.794 100.592 102.863 100.694C102.933 100.797 103.034 100.873 103.151 100.912C103.269 100.951 103.396 100.949 103.512 100.908C104.808 100.396 105.416 100.508 105.512 100.748C105.608 100.988 105.096 102.172 104.056 102.684C103.384 103.02 102.088 103.324 101.096 101.516C100.28 100.044 101.672 98.4283 101.096 98.0923C100.52 97.7563 98.8882 100.236 100.28 102.412C99.9926 102.623 99.6487 102.743 99.2924 102.758C98.9361 102.772 98.5837 102.679 98.2802 102.492C97.5762 101.948 97.0962 100.428 97.9122 97.6923C98.2162 96.6363 96.4242 96.3643 96.2002 100.892C96.1042 101.516 95.4162 105.356 95.2082 106.652C95.0002 107.948 94.7122 108.044 94.6802 108.06C94.6482 108.076 94.5042 108.06 94.3762 107.884C93.2402 106.604 91.8802 100.092 94.0562 95.0843C94.7327 93.3954 95.8883 91.9412 97.3808 90.9007C98.8733 89.8602 100.638 89.2789 102.456 89.2283C103.526 89.2078 104.584 89.4461 105.542 89.9228C106.5 90.3995 107.328 91.1006 107.957 91.9663C108.585 92.832 108.995 93.8367 109.152 94.895C109.308 95.9533 109.207 97.0337 108.856 98.0443C108.684 98.5822 108.391 99.0736 108 99.4811C107.609 99.8887 107.13 100.202 106.6 100.396C106.418 100.084 106.164 99.819 105.86 99.623C105.555 99.4269 105.209 99.3053 104.849 99.2679C104.49 99.2305 104.126 99.2784 103.788 99.4077C103.45 99.5371 103.147 99.7442 102.904 100.012ZM91.1282 113.564C90.9322 113.013 90.5541 112.544 90.0562 112.236L90.2482 109.644H97.8322C97.8322 110.508 98.0722 113.052 98.0722 113.052C95.7485 113.063 93.4283 113.234 91.1282 113.564ZM96.0882 108.204C96.5107 106.456 96.8154 104.681 97.0002 102.892C97.5202 103.459 98.2269 103.819 98.9908 103.907C99.7547 103.995 100.525 103.806 101.16 103.372L101.416 103.548C100.732 106.672 100.645 109.897 101.16 113.052H99.5602C99.6037 111.538 99.4368 110.025 99.0642 108.556C98.6002 108.14 96.7922 108.204 96.0882 108.204ZM83.7682 112.076C84.8406 111.808 85.9647 111.828 87.0268 112.135C88.0889 112.441 89.0512 113.022 89.8162 113.82C90.1042 114.3 90.0562 114.46 90.0402 114.508C90.0242 114.556 89.0802 114.684 88.4402 114.652C87.4947 114.5 86.5251 114.633 85.6562 115.036C84.3371 116.095 83.4727 117.617 83.2402 119.292C83.0002 123.372 94.7922 122.86 98.8242 122.732C95.8482 125.772 86.9842 125.084 80.9842 129.276C78.8875 125.66 77.5534 121.652 77.0642 117.5C78.1202 117.02 82.0722 112.812 83.7682 112.076ZM133.8 127.292C130.344 137.388 119.512 134.796 119.064 134.684C111.512 132.78 107.144 125.74 105.496 122.476C107.288 122.06 106.776 120.3 106.6 118.604L120.552 118.284C121.672 120.412 124.328 119.708 124.2 117.58C124.217 117.117 124.07 116.663 123.787 116.297C123.504 115.93 123.101 115.674 122.649 115.573C122.196 115.473 121.723 115.533 121.311 115.745C120.899 115.957 120.574 116.306 120.392 116.732C118.392 116.556 108.552 116.828 106.488 117.052C106.248 112.764 106.488 113.068 102.536 113.084C102.168 110.077 102.168 107.036 102.536 104.028C103.374 104.185 104.241 104.041 104.984 103.623C105.727 103.204 106.299 102.538 106.6 101.74C109.256 101.404 111.928 96.7963 109.576 91.8683C109.136 91.0411 108.529 90.314 107.794 89.7329C107.059 89.1519 106.211 88.7295 105.304 88.4923C117.512 88.1723 128.568 98.0123 132.984 109.724C133.208 109.724 133.352 109.564 132.984 109.724C135.257 115.315 135.545 121.515 133.8 127.292ZM50.6002 281.292C50.0914 283.308 49.7173 285.355 49.4802 287.42C45.5885 287.823 41.6678 287.866 37.7682 287.548C38.0242 285.324 38.2642 283.116 38.5042 280.892L50.6002 281.292ZM263.88 215.836C267.368 212.972 282.792 216.62 280.488 229.9H131.992L130.6 212.172C138.712 209.356 144.664 213.644 146.76 218.86C147.128 219.836 149.192 219.004 145.976 214.988C143.933 212.463 141.047 210.758 137.848 210.188C145.592 195.276 167.512 197.66 171.768 213.692C171.992 214.54 173.256 214.124 173.032 213.276C171.748 208.548 168.73 204.478 164.578 201.877C160.426 199.277 155.446 198.336 150.632 199.244C151.989 196.517 153.996 194.166 156.477 192.399C158.958 190.631 161.837 189.503 164.857 189.112C167.878 188.721 170.949 189.081 173.798 190.159C176.647 191.237 179.186 193 181.192 195.292C182.664 196.892 187.592 206.268 189.192 207.372C187.877 209.628 187.053 212.136 186.776 214.732C184.798 215.457 183 216.6 181.503 218.082C180.007 219.565 178.847 221.353 178.104 223.324C178.051 223.445 178.048 223.582 178.096 223.705C178.144 223.828 178.239 223.927 178.36 223.98C178.481 224.033 178.618 224.036 178.741 223.988C178.864 223.94 178.963 223.845 179.016 223.724C179.984 221.482 181.52 219.531 183.472 218.063C185.424 216.595 187.726 215.662 190.149 215.355C192.572 215.048 195.033 215.378 197.289 216.313C199.546 217.247 201.52 218.754 203.016 220.684C203.122 220.833 203.283 220.933 203.463 220.963C203.643 220.993 203.828 220.95 203.976 220.844C204.125 220.738 204.225 220.578 204.255 220.397C204.285 220.217 204.242 220.033 204.136 219.884C202.293 217.444 199.76 215.612 196.865 214.625C193.971 213.638 190.846 213.542 187.896 214.348C188.366 211.801 189.347 209.375 190.78 207.216C192.213 205.057 194.067 203.211 196.232 201.788C198.85 200.11 201.851 199.125 204.954 198.924C208.057 198.724 211.16 199.315 213.972 200.643C216.784 201.97 219.212 203.99 221.029 206.514C222.846 209.037 223.993 211.981 224.36 215.068C224.395 215.228 224.486 215.369 224.618 215.466C224.749 215.563 224.911 215.609 225.073 215.595C225.236 215.582 225.388 215.509 225.501 215.392C225.614 215.274 225.681 215.119 225.688 214.956C225.264 211.434 223.902 208.091 221.743 205.276C219.584 202.462 216.708 200.279 213.416 198.956C214.484 196.139 216.257 193.643 218.565 191.707C220.873 189.772 223.64 188.461 226.6 187.9C235.944 186.46 243.96 193.644 245.144 202.108C242.696 202.514 240.372 203.468 238.346 204.901C236.32 206.334 234.646 208.207 233.448 210.38C233.16 210.924 234.04 211.404 234.344 210.876C236.091 207.924 238.76 205.626 241.939 204.337C245.119 203.048 248.634 202.838 251.944 203.74C255.129 204.755 257.9 206.772 259.844 209.492C261.788 212.211 262.8 215.486 262.728 218.828C262.728 219.26 263.304 219.804 263.736 219.5C263.912 219.388 264.424 219.02 263.896 215.836H263.88ZM171.32 43.2283C182.296 41.3083 193.72 40.9723 209.48 42.1403C212.008 63.8843 212.376 84.3643 212.776 106.236C209.704 99.4523 206.584 89.5483 206.632 82.7163C206.617 74.7687 204.685 66.942 201 59.9003C196.616 51.5323 190.68 45.6123 184.216 52.5563C175.256 62.1563 175.896 73.7403 176.072 86.5883C175.479 92.3018 174.25 97.9313 172.408 103.372C171.848 76.7003 170.296 57.0523 171.32 43.2283ZM235.448 145.212C234.271 145.028 233.073 145.028 231.896 145.212L232.056 132.604C232.103 132.319 232.084 132.026 232.001 131.749C231.918 131.472 231.773 131.217 231.576 131.004C227.912 127.932 217.656 118.044 214.264 109.228C214.264 99.9483 214.12 90.5403 213.752 81.2603C221.864 81.0203 229.448 81.1163 235.832 81.2603C236.472 96.8603 235.272 124.124 235.448 145.212ZM171.544 188.012C168.305 187.292 164.936 187.402 161.751 188.33C158.565 189.259 155.665 190.977 153.32 193.324C153.208 189.884 152.504 168.508 152.264 161.788L170.44 161.436C170.392 164.684 171.24 184.876 171.544 188.012ZM206.968 93.7563C209.896 105.868 215.144 118.812 230.664 131.98C230.664 136.3 230.168 147.228 230.456 151.388C230.136 151.388 206.584 151.548 204.856 151.692C206.646 132.435 207.351 113.093 206.968 93.7563ZM176.424 93.9963C177.496 113.596 179.464 133.1 182.296 152.044C178.376 151.948 159.992 151.388 157.32 151.516C157.32 148.892 156.664 133.788 156.6 132.316C166.791 121.74 173.68 108.424 176.424 93.9963ZM171.624 161.404C172.776 161.404 175.32 161.676 175.176 160.54C174.457 158.039 173.476 155.62 172.248 153.324L182.456 153.468C182.696 154.94 182.92 156.412 183.144 157.884C181.64 159.484 178.6 168.764 178.184 170.444C178.152 170.556 178.147 170.674 178.169 170.788C178.192 170.902 178.241 171.009 178.312 171.1C178.696 171.58 179.704 171.644 180.776 171.644C176.12 179.02 178.648 188.14 180.424 192.636C178.21 190.695 175.616 189.235 172.808 188.348C173.176 185.42 171.832 164.092 171.64 161.404H171.624ZM179.816 178.748C180.155 176.279 180.958 173.895 182.184 171.724C189.565 172.02 196.956 171.94 204.328 171.484C205.208 174.956 213.224 184.06 203.272 197.74C200.571 198.106 197.978 199.036 195.66 200.47C193.341 201.903 191.351 203.808 189.816 206.06C184.152 197.5 178.376 189.052 179.832 178.748H179.816ZM205.56 111.196C205.32 127.324 204.328 141.452 203.144 156.908L184.312 157.404C180.76 132.812 179.24 115.212 177.912 95.0043C177.544 89.2763 177.176 83.3403 177.304 77.5323C177.512 67.5643 179.544 60.4603 183.704 55.1323C189.592 47.6283 194.36 50.9723 199.032 59.2763C201.715 64.0698 203.56 69.286 204.488 74.7003C205.928 82.8603 205.64 106.54 205.576 111.196H205.56ZM212.28 198.54C209.978 197.795 207.561 197.47 205.144 197.58C207.836 193.777 209.336 189.258 209.453 184.6C209.57 179.942 208.298 175.354 205.8 171.42C206.84 171.42 209.608 171.42 209.288 170.444C208.744 168.62 207.208 164.828 205.976 161.772C205.176 159.756 204.376 158.012 204.376 157.548C204.472 156.7 204.856 152.924 204.856 152.924C206.344 153.164 213.464 152.924 215.88 152.924C213.848 159.324 214.12 158.524 213.688 159.628C213.368 160.476 213.208 160.892 213.416 161.228C213.624 161.564 214.472 161.548 216.616 161.596C216.616 170.828 217.4 181.5 217.8 190.7C215.208 192.69 213.287 195.426 212.296 198.54H212.28ZM217.64 161.58L235.864 161.756C235.284 170.468 235.316 179.209 235.96 187.916C233.214 186.712 230.202 186.239 227.218 186.545C224.235 186.851 221.381 187.924 218.936 189.66C218.6 180.3 218.344 170.684 217.656 161.58H217.64ZM171.4 42.0283C172.504 29.0843 176.76 11.7563 190.6 1.80432C203.912 10.9403 207.544 26.5403 209.304 40.6683C197.96 39.8363 181.992 39.9483 171.416 42.0283H171.4ZM149.8 83.3563C153.528 83.3563 167.4 83.1643 170.6 83.1483C170.888 90.8283 171.182 98.519 171.48 106.22C168.52 113.9 161.88 125.708 155.656 131.5C155.336 133.1 155.752 143.404 155.832 145.26C154.664 145.372 153.496 145.484 152.408 145.644C151.768 124.108 149.8 96.2843 149.8 83.3563Z" fill="#27272A"/>
<path d="M72.3443 47.1802C68.0083 46.8442 66.9043 43.6922 65.9443 43.9802C65.6883 43.9802 65.5763 44.3162 65.5123 44.4922C64.1523 47.4522 65.8803 51.1322 68.9043 51.1322C69.8345 51.0325 70.7202 50.6822 71.4669 50.1187C72.2136 49.5551 72.7934 48.7994 73.1443 47.9322C73.1972 47.8219 73.2136 47.6977 73.1911 47.5775C73.1686 47.4573 73.1085 47.3473 73.0194 47.2636C72.9303 47.1798 72.8168 47.1266 72.6955 47.1116C72.5741 47.0966 72.4511 47.1206 72.3443 47.1802ZM71.5763 48.2842C69.4163 51.1642 65.9923 49.8842 66.3283 45.9322C66.992 46.6669 67.8014 47.2554 68.7049 47.6603C69.6084 48.0652 70.5862 48.2777 71.5763 48.2842ZM193 117.132C192.975 116.962 192.889 116.806 192.758 116.694C192.627 116.581 192.461 116.519 192.288 116.519C192.116 116.519 191.949 116.581 191.819 116.694C191.688 116.806 191.602 116.962 191.576 117.132C191.576 119.548 192.376 149.356 192.824 152.588C192.824 152.741 192.885 152.887 192.993 152.996C193.101 153.104 193.248 153.164 193.4 153.164C193.553 153.164 193.7 153.104 193.808 152.996C193.916 152.887 193.976 152.741 193.976 152.588C194.696 142.412 193.336 127.676 193 117.132ZM66.6003 39.6442C67.1123 39.6442 67.2723 39.1002 67.1603 38.5402C66.9363 37.4202 66.0403 37.3562 65.8163 37.9962C65.5923 38.6362 65.9123 39.6442 66.6003 39.6442ZM64.9043 32.8762C64.1839 33.0194 63.5347 33.406 63.0657 33.9712C62.5966 34.5364 62.3363 35.2458 62.3283 35.9802C62.4563 36.8122 63.1443 36.8122 63.2563 36.2042C63.5923 34.4922 64.3123 34.6042 65.2083 34.0602C65.3374 33.9972 65.4408 33.8915 65.501 33.7611C65.5613 33.6307 65.5747 33.4835 65.5389 33.3443C65.5032 33.2052 65.4205 33.0826 65.3049 32.9973C65.1893 32.912 65.0478 32.8693 64.9043 32.8762ZM228.328 183.276C228.328 183.58 228.92 183.484 228.984 183.18C229.24 182.092 228.056 169.692 228.248 166.332C228.248 165.9 227.608 165.916 227.576 166.332C227.281 171.991 227.533 177.666 228.328 183.276ZM191.528 196.284C191.848 196.524 192.344 196.14 192.136 195.788C191.528 194.716 190.664 193.884 189.752 192.236C188.352 189.625 187.545 186.737 187.387 183.778C187.23 180.819 187.726 177.862 188.84 175.116C189.016 174.716 188.376 174.476 188.184 174.892C186.824 178.014 186.271 181.428 186.576 184.819C186.881 188.211 188.033 191.471 189.928 194.3C190.356 195.04 190.896 195.709 191.528 196.284Z" fill="#27272A"/>
</svg>
